<svg viewBox="0 0 56 76" fill="none" xmlns="http://www.w3.org/2000/svg">
<rect width="56" height="76" rx="7" fill="#FAFAFA"/>
<rect width="56" height="76" rx="7" fill="url(#paint0_linear_11956_556342)"/>
<path d="M32.9394 56.6872C32.7764 55.6897 32.406 54.6777 31.4874 53.2362C29.7094 50.4476 27.8276 49.1226 25.8866 47.3606C24.6124 46.203 22.9455 44.5357 21.1897 42.2496C20.8637 41.8273 20.2117 41.8273 19.8858 42.2496C18.13 44.5357 16.4631 46.203 15.1888 47.3606C13.2478 49.1153 11.3661 50.4476 9.58805 53.2362C8.6694 54.6777 8.29899 55.6897 8.136 56.6872C8.01006 57.4517 7.67666 59.4976 8.92869 61.5143C9.27688 62.0749 10.5586 63.9388 12.9663 64.3829C14.2776 64.6232 15.3444 64.3465 15.7815 64.2082C16.1815 64.0844 17.5373 63.6257 18.4708 62.3807C19.1301 61.507 19.2709 60.6334 19.4487 60.677C19.6561 60.7207 19.5524 61.8711 19.5376 62.0749C19.4857 62.7011 19.382 63.7058 18.8116 64.8707C18.4263 65.657 16.5816 67.5864 16.5446 67.6374C16.4927 67.7029 16.4186 67.7976 16.4334 67.9068C16.4334 67.9359 16.4483 67.965 16.4631 67.9941C16.5149 68.0888 16.6261 68.1398 16.7372 68.1398H20.5377H24.3382C24.4494 68.1398 24.5605 68.0888 24.6124 67.9941C24.6272 67.965 24.6346 67.9432 24.642 67.9068C24.6568 67.7976 24.5827 67.7029 24.5309 67.6374C24.4938 67.5864 22.6491 65.657 22.2639 64.8707C21.6934 63.7058 21.5897 62.7011 21.5379 62.0749C21.523 61.8783 21.4193 60.728 21.6268 60.677C21.8046 60.6406 21.9527 61.507 22.6047 62.3807C23.5381 63.6257 24.8939 64.0771 25.2939 64.2082C25.731 64.3465 26.7978 64.6232 28.1091 64.3829C30.5169 63.9388 31.7985 62.0749 32.1467 61.5143C33.3988 59.4976 33.0654 57.4444 32.9394 56.6872Z" fill="black"/>
<path d="M7 28V7H12.0582V15.8829H12.3402L19.2747 7H25.2644L17.8247 16.388L25.3955 28H19.3206L14.105 19.7535L12.0582 22.3055V28H7Z" fill="black"/>
<path d="M36.4578 12.2546C36.4008 11.8994 36.2711 11.539 35.9496 11.0256C35.3273 10.0325 34.6687 9.56054 33.9893 8.93304C33.5433 8.52076 32.9599 7.92698 32.3454 7.11279C32.2313 6.9624 32.0031 6.9624 31.889 7.11279C31.2745 7.92698 30.6911 8.52076 30.2451 8.93304C29.5657 9.55795 28.9071 10.0325 28.2848 11.0256C27.9633 11.539 27.8336 11.8994 27.7766 12.2546C27.7325 12.5269 27.6158 13.2555 28.054 13.9737C28.1759 14.1734 28.6245 14.8372 29.4672 14.9954C29.9262 15.0809 30.2995 14.9824 30.4525 14.9331C30.5925 14.8891 31.0671 14.7257 31.3938 14.2823C31.6245 13.9712 31.6738 13.66 31.736 13.6756C31.8086 13.6911 31.7723 14.1008 31.7672 14.1734C31.749 14.3964 31.7127 14.7542 31.5131 15.1691C31.3782 15.4491 30.7326 16.1363 30.7196 16.1544C30.7014 16.1778 30.6755 16.2115 30.6807 16.2504C30.6807 16.2607 30.6859 16.2711 30.6911 16.2815C30.7092 16.3152 30.7481 16.3333 30.787 16.3333H32.1172H33.4474C33.4863 16.3333 33.5252 16.3152 33.5433 16.2815C33.5485 16.2711 33.5511 16.2633 33.5537 16.2504C33.5589 16.2115 33.533 16.1778 33.5148 16.1544C33.5018 16.1363 32.8562 15.4491 32.7214 15.1691C32.5217 14.7542 32.4854 14.3964 32.4673 14.1734C32.4621 14.1034 32.4258 13.6937 32.4984 13.6756C32.5606 13.6626 32.6125 13.9712 32.8406 14.2823C33.1674 14.7257 33.6419 14.8865 33.7819 14.9331C33.9349 14.9824 34.3083 15.0809 34.7672 14.9954C35.6099 14.8372 36.0585 14.1734 36.1804 13.9737C36.6186 13.2555 36.5019 12.5243 36.4578 12.2546Z" fill="black"/>
<defs>
<linearGradient id="paint0_linear_11956_556342" x1="56" y1="38" x2="0" y2="38" gradientUnits="userSpaceOnUse">
<stop stop-color="#EEEEEE"/>
<stop offset="1" stop-color="#FAFAFA"/>
</linearGradient>
</defs>
</svg>
